<svg width="447" height="137" viewBox="0 0 447 137" fill="none" xmlns="http://www.w3.org/2000/svg">
<g clip-path="url(#clip0_2124_41)">
<path d="M28.088 54.12H21.816V88.936C21.816 90.984 22.328 92.52 23.352 93.544C24.4613 94.568 26.3813 95.2933 29.112 95.72V97H4.28V95.72C7.01067 95.2933 8.888 94.568 9.912 93.544C11.0213 92.52 11.576 90.984 11.576 88.936V15.976C11.576 13.928 11.0213 12.392 9.912 11.368C8.888 10.344 7.01067 9.61866 4.28 9.19199V7.91199H38.456C42.3813 7.91199 45.9653 8.46666 49.208 9.576C52.4507 10.6 55.224 12.136 57.528 14.184C59.832 16.1467 61.5813 18.536 62.776 21.352C64.056 24.0827 64.696 27.1547 64.696 30.568C64.696 33.896 64.0987 36.968 62.904 39.784C61.7947 42.6 60.1733 45.032 58.04 47.08C55.992 49.128 53.4747 50.792 50.488 52.072C47.5013 53.2667 44.1733 53.9493 40.504 54.12L63.672 87.784C65.2933 90.1733 67.128 92.0933 69.176 93.544C71.3093 94.9947 73.272 95.72 75.064 95.72V97C70.0293 97.4267 65.592 97.1707 61.752 96.232C57.9973 95.208 54.9253 92.9893 52.536 89.576L28.088 54.12ZM35.256 52.2C41.0587 52.2 45.7093 50.2373 49.208 46.312C52.7067 42.3013 54.456 37.0533 54.456 30.568C54.456 24.3387 52.7067 19.3467 49.208 15.592C45.7093 11.752 41.1013 9.83199 35.384 9.83199H21.816V52.2H35.256ZM115.415 89.832C112.258 92.9893 109.314 95.208 106.583 96.488C103.852 97.768 100.652 98.408 96.983 98.408C91.863 98.408 87.767 97.1707 84.695 94.696C81.7083 92.136 80.215 88.808 80.215 84.712C80.215 81.5547 80.8977 78.9093 82.263 76.776C83.7137 74.6427 85.5483 72.808 87.767 71.272C89.9857 69.736 92.4603 68.3707 95.191 67.176C97.9217 65.9813 100.567 64.7867 103.127 63.592C105.772 62.312 108.162 60.904 110.295 59.368C112.514 57.7467 114.22 55.8267 115.415 53.608V50.664C115.415 47.08 114.604 44.1787 112.983 41.96C111.362 39.7413 109.228 38.632 106.583 38.632C103.938 38.632 101.932 39.656 100.567 41.704C99.287 43.752 98.135 46.568 97.111 50.152C96.5137 52.1147 95.6603 53.5227 94.551 54.376C93.527 55.2293 92.4603 55.656 91.351 55.656C89.9857 55.656 88.791 55.1013 87.767 53.992C86.8283 52.7973 86.5297 51.176 86.871 49.128C87.4683 45.3733 89.6443 42.3867 93.399 40.168C97.1537 37.864 101.847 36.712 107.479 36.712C112.94 36.712 117.335 38.248 120.663 41.32C123.991 44.3067 125.655 48.2747 125.655 53.224V89.064C125.655 90.2587 125.954 91.1973 126.551 91.88C127.148 92.5627 127.959 92.904 128.983 92.904C130.434 92.904 131.628 92.008 132.567 90.216L134.231 91.112C133.378 93.16 132.055 94.824 130.263 96.104C128.556 97.2987 126.722 97.896 124.759 97.896C121.943 97.896 119.682 97.1707 117.975 95.72C116.268 94.2693 115.415 92.3493 115.415 89.96V89.832ZM102.359 94.824C106.455 94.824 110.807 92.264 115.415 87.144V57.192C114.22 58.8987 112.77 60.3493 111.063 61.544C109.356 62.7387 107.564 63.8907 105.687 65C103.81 66.024 101.975 67.048 100.183 68.072C98.391 69.096 96.7697 70.2907 95.319 71.656C93.8683 73.0213 92.6737 74.6 91.735 76.392C90.8817 78.184 90.455 80.36 90.455 82.92C90.455 86.504 91.5217 89.4053 93.655 91.624C95.8737 93.7573 98.775 94.824 102.359 94.824ZM138.025 37.992H155.561V44.776C158.292 41.8747 160.852 39.8267 163.241 38.632C165.716 37.352 168.404 36.712 171.305 36.712C175.316 36.712 178.729 37.5653 181.545 39.272C184.446 40.8933 186.58 43.1973 187.945 46.184C191.017 42.6853 193.876 40.2533 196.521 38.888C199.166 37.4373 202.025 36.712 205.097 36.712C210.558 36.712 214.953 38.248 218.281 41.32C221.609 44.392 223.273 48.488 223.273 53.608V89.064C223.273 91.112 223.785 92.648 224.809 93.672C225.918 94.6107 227.838 95.2933 230.569 95.72V97H205.737V95.72C208.468 95.2933 210.345 94.568 211.369 93.544C212.478 92.52 213.033 90.984 213.033 88.936V54.888C213.033 51.048 211.881 47.976 209.577 45.672C207.358 43.368 204.372 42.216 200.617 42.216C196.436 42.216 192.468 44.2213 188.713 48.232C189.225 49.8533 189.481 51.6453 189.481 53.608V89.064C189.481 91.112 189.993 92.648 191.017 93.672C192.126 94.6107 194.046 95.2933 196.777 95.72V97H171.945V95.72C174.676 95.2933 176.553 94.568 177.577 93.544C178.686 92.52 179.241 90.984 179.241 88.936V54.888C179.241 51.048 178.089 47.976 175.785 45.672C173.566 43.368 170.58 42.216 166.825 42.216C162.814 42.216 159.06 44.008 155.561 47.592V89.064C155.561 91.112 156.073 92.648 157.097 93.672C158.206 94.6107 160.126 95.2933 162.857 95.72V97H138.025V95.72C140.756 95.2933 142.633 94.568 143.657 93.544C144.766 92.52 145.321 90.984 145.321 88.936V46.056C145.321 44.008 144.766 42.472 143.657 41.448C142.633 40.424 140.756 39.6987 138.025 39.272V37.992ZM243.006 21.864C243.006 20.328 243.475 19.0907 244.414 18.152C245.353 17.2133 246.59 16.744 248.126 16.744C249.662 16.744 250.899 17.2133 251.838 18.152C252.777 19.0907 253.246 20.328 253.246 21.864C253.246 23.4 252.777 24.6373 251.838 25.576C250.899 26.5147 249.662 26.984 248.126 26.984C246.59 26.984 245.353 26.5147 244.414 25.576C243.475 24.6373 243.006 23.4 243.006 21.864ZM235.71 37.992H253.246V89.064C253.246 91.112 253.758 92.648 254.782 93.672C255.891 94.6107 257.811 95.2933 260.542 95.72V97H235.71V95.72C238.441 95.2933 240.318 94.568 241.342 93.544C242.451 92.52 243.006 90.984 243.006 88.936V46.056C243.006 44.008 242.451 42.472 241.342 41.448C240.318 40.424 238.441 39.6987 235.71 39.272V37.992ZM283.181 7.91199V89.064C283.181 91.112 283.693 92.648 284.717 93.672C285.826 94.6107 287.746 95.2933 290.477 95.72V97H265.645V95.72C268.376 95.2933 270.253 94.568 271.277 93.544C272.386 92.52 272.941 90.984 272.941 88.936V15.976C272.941 13.928 272.386 12.392 271.277 11.368C270.253 10.344 268.376 9.61866 265.645 9.19199V7.91199H283.181ZM313.116 7.91199V89.064C313.116 91.112 313.628 92.648 314.652 93.672C315.761 94.6107 317.681 95.2933 320.412 95.72V97H295.58V95.72C298.311 95.2933 300.188 94.568 301.212 93.544C302.321 92.52 302.876 90.984 302.876 88.936V15.976C302.876 13.928 302.321 12.392 301.212 11.368C300.188 10.344 298.311 9.61866 295.58 9.19199V7.91199H313.116ZM358.215 89.832C355.058 92.9893 352.114 95.208 349.383 96.488C346.652 97.768 343.452 98.408 339.783 98.408C334.663 98.408 330.567 97.1707 327.495 94.696C324.508 92.136 323.015 88.808 323.015 84.712C323.015 81.5547 323.698 78.9093 325.063 76.776C326.514 74.6427 328.348 72.808 330.567 71.272C332.786 69.736 335.26 68.3707 337.991 67.176C340.722 65.9813 343.367 64.7867 345.927 63.592C348.572 62.312 350.962 60.904 353.095 59.368C355.314 57.7467 357.02 55.8267 358.215 53.608V50.664C358.215 47.08 357.404 44.1787 355.783 41.96C354.162 39.7413 352.028 38.632 349.383 38.632C346.738 38.632 344.732 39.656 343.367 41.704C342.087 43.752 340.935 46.568 339.911 50.152C339.314 52.1147 338.46 53.5227 337.351 54.376C336.327 55.2293 335.26 55.656 334.151 55.656C332.786 55.656 331.591 55.1013 330.567 53.992C329.628 52.7973 329.33 51.176 329.671 49.128C330.268 45.3733 332.444 42.3867 336.199 40.168C339.954 37.864 344.647 36.712 350.279 36.712C355.74 36.712 360.135 38.248 363.463 41.32C366.791 44.3067 368.455 48.2747 368.455 53.224V89.064C368.455 90.2587 368.754 91.1973 369.351 91.88C369.948 92.5627 370.759 92.904 371.783 92.904C373.234 92.904 374.428 92.008 375.367 90.216L377.031 91.112C376.178 93.16 374.855 94.824 373.063 96.104C371.356 97.2987 369.522 97.896 367.559 97.896C364.743 97.896 362.482 97.1707 360.775 95.72C359.068 94.2693 358.215 92.3493 358.215 89.96V89.832ZM345.159 94.824C349.255 94.824 353.607 92.264 358.215 87.144V57.192C357.02 58.8987 355.57 60.3493 353.863 61.544C352.156 62.7387 350.364 63.8907 348.487 65C346.61 66.024 344.775 67.048 342.983 68.072C341.191 69.096 339.57 70.2907 338.119 71.656C336.668 73.0213 335.474 74.6 334.535 76.392C333.682 78.184 333.255 80.36 333.255 82.92C333.255 86.504 334.322 89.4053 336.455 91.624C338.674 93.7573 341.575 94.824 345.159 94.824ZM423.833 88.936V54.888C423.833 51.048 422.681 47.976 420.377 45.672C418.158 43.368 415.172 42.216 411.417 42.216C409.198 42.216 406.937 42.6853 404.633 43.624C402.414 44.5627 400.324 45.8853 398.361 47.592V89.064C398.361 91.112 398.873 92.648 399.897 93.672C401.006 94.6107 402.926 95.2933 405.657 95.72V97H380.825V95.72C383.556 95.2933 385.433 94.568 386.457 93.544C387.566 92.52 388.121 90.984 388.121 88.936V46.056C388.121 44.008 387.566 42.472 386.457 41.448C385.433 40.424 383.556 39.6987 380.825 39.272V37.992H398.361V45.032C401.86 42.0453 404.932 39.912 407.577 38.632C410.222 37.352 412.996 36.712 415.897 36.712C421.358 36.712 425.753 38.248 429.081 41.32C432.409 44.392 434.073 48.488 434.073 53.608V89.064C434.073 91.112 434.585 92.648 435.609 93.672C436.718 94.6107 438.638 95.2933 441.369 95.72V97H416.537V95.72C419.268 95.2933 421.145 94.568 422.169 93.544C423.278 92.52 423.833 90.984 423.833 88.936Z" fill="black"/>
<path d="M22.152 130.24C20.264 130.24 18.632 129.88 17.256 129.16C15.896 128.44 14.848 127.408 14.112 126.064C13.392 124.72 13.032 123.112 13.032 121.24C13.032 119.368 13.392 117.76 14.112 116.416C14.848 115.072 15.896 114.04 17.256 113.32C18.632 112.6 20.264 112.24 22.152 112.24C24.312 112.24 26.232 112.72 27.912 113.68L27.264 116.032C25.648 115.104 23.976 114.64 22.248 114.64C20.92 114.64 19.768 114.904 18.792 115.432C17.816 115.96 17.064 116.72 16.536 117.712C16.024 118.688 15.768 119.864 15.768 121.24C15.768 122.6 16.024 123.776 16.536 124.768C17.064 125.76 17.816 126.52 18.792 127.048C19.768 127.576 20.92 127.84 22.248 127.84C23.928 127.84 25.6 127.376 27.264 126.448L27.912 128.8C26.232 129.76 24.312 130.24 22.152 130.24ZM62.4617 130.24C60.6377 130.24 59.0457 129.872 57.6857 129.136C56.3417 128.4 55.3017 127.36 54.5657 126.016C53.8297 124.656 53.4617 123.064 53.4617 121.24C53.4617 119.4 53.8297 117.808 54.5657 116.464C55.3017 115.12 56.3417 114.08 57.6857 113.344C59.0457 112.608 60.6377 112.24 62.4617 112.24C64.3017 112.24 65.8937 112.608 67.2377 113.344C68.5817 114.08 69.6217 115.12 70.3577 116.464C71.0937 117.808 71.4617 119.4 71.4617 121.24C71.4617 123.064 71.0937 124.656 70.3577 126.016C69.6217 127.36 68.5817 128.4 67.2377 129.136C65.8937 129.872 64.3017 130.24 62.4617 130.24ZM62.4617 127.84C63.7577 127.84 64.8777 127.576 65.8217 127.048C66.7657 126.504 67.4857 125.744 67.9817 124.768C68.4937 123.776 68.7497 122.6 68.7497 121.24C68.7497 119.88 68.4937 118.712 67.9817 117.736C67.4857 116.744 66.7657 115.984 65.8217 115.456C64.8777 114.912 63.7577 114.64 62.4617 114.64C61.1657 114.64 60.0457 114.912 59.1017 115.456C58.1577 115.984 57.4297 116.744 56.9177 117.736C56.4217 118.712 56.1737 119.88 56.1737 121.24C56.1737 122.6 56.4217 123.776 56.9177 124.768C57.4297 125.744 58.1577 126.504 59.1017 127.048C60.0457 127.576 61.1657 127.84 62.4617 127.84ZM98.5322 112.576C99.0922 112.512 99.6762 112.456 100.284 112.408C100.908 112.36 101.524 112.32 102.132 112.288C102.756 112.256 103.316 112.24 103.812 112.24C106.388 112.24 108.268 112.672 109.452 113.536C110.652 114.4 111.252 115.776 111.252 117.664C111.252 119.552 110.652 120.928 109.452 121.792C108.268 122.656 106.388 123.088 103.812 123.088C103.188 123.088 102.484 123.064 101.7 123.016C100.932 122.968 100.18 122.912 99.4442 122.848L99.9002 120.472C100.796 120.584 101.556 120.664 102.18 120.712C102.82 120.76 103.404 120.784 103.932 120.784C105.564 120.784 106.74 120.544 107.46 120.064C108.196 119.568 108.564 118.784 108.564 117.712C108.564 116.624 108.196 115.84 107.46 115.36C106.74 114.88 105.564 114.64 103.932 114.64C103.404 114.64 102.82 114.664 102.18 114.712C101.556 114.76 100.796 114.84 99.9002 114.952L101.172 113.488V130H98.5322V112.576ZM108.756 130L99.8522 121.72H103.188L112.212 130H108.756ZM139.079 112.576C139.687 112.496 140.295 112.432 140.903 112.384C141.511 112.336 142.087 112.304 142.631 112.288C143.191 112.256 143.687 112.24 144.119 112.24C146.743 112.24 148.679 112.736 149.927 113.728C151.175 114.72 151.799 116.24 151.799 118.288C151.799 120.32 151.191 121.84 149.975 122.848C148.775 123.856 146.943 124.36 144.479 124.36C143.935 124.36 143.351 124.336 142.727 124.288C142.103 124.224 141.327 124.136 140.399 124.024L140.447 121.648C141.375 121.76 142.111 121.84 142.655 121.888C143.215 121.936 143.719 121.96 144.167 121.96C145.927 121.96 147.191 121.672 147.959 121.096C148.727 120.52 149.111 119.584 149.111 118.288C149.111 116.992 148.727 116.064 147.959 115.504C147.191 114.928 145.927 114.64 144.167 114.64C143.639 114.64 143.047 114.664 142.391 114.712C141.751 114.76 141.103 114.84 140.447 114.952L141.719 113.488V130H139.079V112.576ZM186.54 130.24C184.716 130.24 183.124 129.872 181.764 129.136C180.42 128.4 179.38 127.36 178.644 126.016C177.908 124.656 177.54 123.064 177.54 121.24C177.54 119.4 177.908 117.808 178.644 116.464C179.38 115.12 180.42 114.08 181.764 113.344C183.124 112.608 184.716 112.24 186.54 112.24C188.38 112.24 189.972 112.608 191.316 113.344C192.66 114.08 193.7 115.12 194.436 116.464C195.172 117.808 195.54 119.4 195.54 121.24C195.54 123.064 195.172 124.656 194.436 126.016C193.7 127.36 192.66 128.4 191.316 129.136C189.972 129.872 188.38 130.24 186.54 130.24ZM186.54 127.84C187.836 127.84 188.956 127.576 189.9 127.048C190.844 126.504 191.564 125.744 192.06 124.768C192.572 123.776 192.828 122.6 192.828 121.24C192.828 119.88 192.572 118.712 192.06 117.736C191.564 116.744 190.844 115.984 189.9 115.456C188.956 114.912 187.836 114.64 186.54 114.64C185.244 114.64 184.124 114.912 183.18 115.456C182.236 115.984 181.508 116.744 180.996 117.736C180.5 118.712 180.252 119.88 180.252 121.24C180.252 122.6 180.5 123.776 180.996 124.768C181.508 125.744 182.236 126.504 183.18 127.048C184.124 127.576 185.244 127.84 186.54 127.84ZM222.61 112.576C223.17 112.512 223.754 112.456 224.362 112.408C224.986 112.36 225.602 112.32 226.21 112.288C226.834 112.256 227.394 112.24 227.89 112.24C230.466 112.24 232.346 112.672 233.53 113.536C234.73 114.4 235.33 115.776 235.33 117.664C235.33 119.552 234.73 120.928 233.53 121.792C232.346 122.656 230.466 123.088 227.89 123.088C227.266 123.088 226.562 123.064 225.778 123.016C225.01 122.968 224.258 122.912 223.522 122.848L223.978 120.472C224.874 120.584 225.634 120.664 226.258 120.712C226.898 120.76 227.482 120.784 228.01 120.784C229.642 120.784 230.818 120.544 231.538 120.064C232.274 119.568 232.642 118.784 232.642 117.712C232.642 116.624 232.274 115.84 231.538 115.36C230.818 114.88 229.642 114.64 228.01 114.64C227.482 114.64 226.898 114.664 226.258 114.712C225.634 114.76 224.874 114.84 223.978 114.952L225.25 113.488V130H222.61V112.576ZM232.834 130L223.93 121.72H227.266L236.29 130H232.834ZM261.429 130L267.813 112.48H271.389L277.749 130H274.845L269.613 114.736H269.565L264.333 130H261.429ZM264.741 125.608V123.208H274.461V125.608H264.741ZM306.32 130V114.88H300.368V112.48H315.008V114.88H309.056V130H306.32ZM341.983 130V112.48H344.719V130H341.983ZM381.001 130.24C379.177 130.24 377.585 129.872 376.225 129.136C374.881 128.4 373.841 127.36 373.105 126.016C372.369 124.656 372.001 123.064 372.001 121.24C372.001 119.4 372.369 117.808 373.105 116.464C373.841 115.12 374.881 114.08 376.225 113.344C377.585 112.608 379.177 112.24 381.001 112.24C382.841 112.24 384.433 112.608 385.777 113.344C387.121 114.08 388.161 115.12 388.897 116.464C389.633 117.808 390.001 119.4 390.001 121.24C390.001 123.064 389.633 124.656 388.897 126.016C388.161 127.36 387.121 128.4 385.777 129.136C384.433 129.872 382.841 130.24 381.001 130.24ZM381.001 127.84C382.297 127.84 383.417 127.576 384.361 127.048C385.305 126.504 386.025 125.744 386.521 124.768C387.033 123.776 387.289 122.6 387.289 121.24C387.289 119.88 387.033 118.712 386.521 117.736C386.025 116.744 385.305 115.984 384.361 115.456C383.417 114.912 382.297 114.64 381.001 114.64C379.705 114.64 378.585 114.912 377.641 115.456C376.697 115.984 375.969 116.744 375.457 117.736C374.961 118.712 374.713 119.88 374.713 121.24C374.713 122.6 374.961 123.776 375.457 124.768C375.969 125.744 376.697 126.504 377.641 127.048C378.585 127.576 379.705 127.84 381.001 127.84ZM417.071 130V112.48H419.951L428.303 125.68H428.351V112.48H430.991V130H428.111L419.759 116.8H419.711V130H417.071Z" fill="#3F3F41"/>
<circle cx="248.5" cy="21.5" r="6.5" fill="#FF0000"/>
</g>
<defs>
<clipPath id="clip0_2124_41">
<rect width="447" height="137" fill="white"/>
</clipPath>
</defs>
</svg>
